<svg width="151" height="42" viewBox="0 0 151 42" fill="none" xmlns="http://www.w3.org/2000/svg">
<g clip-path="url(#clip0_124_1247)">
<path d="M106.757 13.4448C107.719 11.9137 108.084 10.0803 107.784 8.29534C107.485 6.51037 106.541 4.89895 105.132 3.76919C103.724 2.63942 101.951 2.07056 100.151 2.17133C98.352 2.27211 96.6526 3.03547 95.3783 4.31548C94.1039 5.59549 93.3439 7.30233 93.2435 9.10973C93.1433 10.9171 93.7097 12.6983 94.8344 14.1126C95.9592 15.527 97.5635 16.4754 99.3407 16.7765C101.118 17.0776 102.943 16.7102 104.468 15.7447L107.44 16.4393L106.757 13.4448Z" fill="#00C0D8"/>
<path d="M0 2.13428V16.8534C4.90922 16.8534 8.8888 13.5554 8.8888 9.49382C8.8888 5.43227 4.90922 2.13428 0 2.13428Z" fill="#F3E200"/>
<path d="M141.703 26.8853L132.586 41.6227L150.866 41.6043L141.703 26.8853Z" fill="#4CD321"/>
<path d="M87.7615 3.50949C86.9339 2.69623 85.8321 2.22537 84.6749 2.19044C83.5177 2.15549 82.3897 2.55903 81.515 3.3209L80.3197 4.46623L79.0741 3.2703C78.1981 2.50507 77.0669 2.09993 75.9064 2.13573C74.746 2.17155 73.6416 2.64569 72.814 3.46349C72.3942 3.83672 72.0548 4.29202 71.8162 4.80154C71.5778 5.31106 71.4452 5.86409 71.4268 6.42682C71.4084 6.98954 71.5045 7.55013 71.7091 8.0743C71.9137 8.59846 72.2227 9.07518 72.617 9.47531L73.8626 10.6712L80.3197 16.8762L86.7769 10.6712L87.9721 9.52591C88.3664 9.12578 88.6754 8.64906 88.88 8.1249C89.0847 7.60072 89.1808 7.04014 89.1623 6.47741C89.1439 5.91469 89.0114 5.36166 88.7728 4.85214C88.5344 4.34262 88.1949 3.88732 87.7752 3.51409" fill="#CB3146"/>
<path d="M30.0369 29.2219C30.0369 32.8097 26.7672 35.6937 22.5494 35.6937H19.3438V41.6274H14.4482V22.7686H22.5494C26.7672 22.7686 30.0369 25.6526 30.0369 29.2403V29.2219ZM25.146 29.2403C25.1423 28.9071 25.0712 28.5781 24.9371 28.2734C24.8029 27.9685 24.6086 27.6942 24.3658 27.4672C24.123 27.24 23.8368 27.0649 23.5246 26.9522C23.2124 26.8395 22.8805 26.7917 22.5494 26.8116H19.3438V31.646H22.5494C22.8805 31.6659 23.2124 31.6181 23.5246 31.5054C23.8368 31.3928 24.123 31.2176 24.3658 30.9904C24.6086 30.7634 24.8029 30.4891 24.9371 30.1842C25.0712 29.8795 25.1423 29.5505 25.146 29.2173" fill="white"/>
<path d="M38.3259 35.4177H35.9995V41.6227H31.1086V22.7639H39.6677C43.7343 22.7639 46.9949 25.6479 46.9949 29.2357C46.9949 31.5356 45.4058 33.656 43.0519 34.7094L47.6269 41.6227H42.3605L38.3259 35.4177ZM35.9995 31.646H39.6631C39.9892 31.6602 40.3148 31.6081 40.6202 31.4926C40.9257 31.3771 41.2047 31.2006 41.4404 30.9739C41.6762 30.7472 41.8638 30.4749 41.992 30.1734C42.1203 29.8718 42.1862 29.5474 42.1862 29.2196C42.1862 28.8918 42.1203 28.5674 41.992 28.2658C41.8638 27.9643 41.6762 27.692 41.4404 27.4653C41.2047 27.2387 40.9257 27.0622 40.6202 26.9467C40.3148 26.8312 39.9892 26.779 39.6631 26.7932H35.9995V31.646Z" fill="white"/>
<path d="M62.1392 37.4739V41.6228H48.6892V22.7502H61.9836V26.9037H53.5802V30.0315H61.2187V34.1299H53.5802V37.4739H62.1392Z" fill="white"/>
<path d="M62.9087 37.336L67.1264 35.1787C67.8912 36.7426 69.2055 37.7959 71.6188 37.7959C73.9408 37.7959 74.5223 36.9864 74.5223 36.2596C74.5223 35.1006 73.2996 34.6405 70.0893 33.8586C66.8791 33.0766 63.7925 31.7381 63.7925 28.1135C63.7925 24.489 67.2776 22.373 70.9823 22.373C74.4948 22.373 77.2471 23.8542 78.8041 26.6324L74.6826 28.7621C73.9498 27.4144 72.9424 26.5772 70.987 26.5772C69.4573 26.5772 68.6972 27.2534 68.6972 28.0078C68.6972 28.8725 69.2192 29.4659 72.5485 30.3536C75.7862 31.2184 79.4178 32.1935 79.4178 36.2045C79.4178 39.8428 76.116 42.0001 71.4724 42.0001C66.9799 42.0001 64.1039 40.1142 62.9132 37.336" fill="white"/>
<path d="M93.7789 37.4739V41.6228H80.3335V22.7502H93.6278V26.9037H85.2199V30.0315H92.863V34.1299H85.2199V37.4739H93.7789Z" fill="white"/>
<path d="M111.667 22.7502V41.6228H107.998L99.7461 31.3793V41.6228H94.8552V22.7502H98.5234L106.776 32.9984V22.7502H111.667Z" fill="white"/>
<path d="M128.629 26.9037H123.129V41.6228H118.238V26.9037H112.738V22.7502H128.629V26.9037Z" fill="white"/>
<path d="M28.8141 4.15354H23.3142V18.8726H18.4233V4.15354H12.9187V0H28.8141V4.15354Z" fill="white"/>
<path d="M46.8483 0V18.8726H41.9574V11.3797H35.2348V18.8726H30.3438V0H35.2348V7.22616H41.9574V0H46.8483Z" fill="white"/>
<path d="M62.1392 14.7237V18.8726H48.6892V0H61.9836V4.15354H53.5802V7.28135H61.2187V11.3797H53.5802V14.7237H62.1392Z" fill="white"/>
</g>
<defs>
<clipPath id="clip0_124_1247">
<rect width="151" height="42" fill="white"/>
</clipPath>
</defs>
</svg>
